<?xml version="1.0" encoding="UTF-8" standalone="no"?>
<!-- Created with Inkscape (http://www.inkscape.org/) -->

<svg
   xmlns:dc="http://purl.org/dc/elements/1.1/"
   xmlns:cc="http://creativecommons.org/ns#"
   xmlns:rdf="http://www.w3.org/1999/02/22-rdf-syntax-ns#"
   xmlns:svg="http://www.w3.org/2000/svg"
   xmlns="http://www.w3.org/2000/svg"
   xmlns:sodipodi="http://sodipodi.sourceforge.net/DTD/sodipodi-0.dtd"
   xmlns:inkscape="http://www.inkscape.org/namespaces/inkscape"
   width="36.670807mm"
   height="12.869337mm"
   viewBox="0 0 36.670807 12.869337"
   version="1.1"
   id="svg8"
   sodipodi:docname="logo.svg"
   inkscape:version="0.92.0 r15299">
  <defs
     id="defs2" />
  <sodipodi:namedview
     id="base"
     pagecolor="#ffffff"
     bordercolor="#666666"
     borderopacity="1.0"
     inkscape:pageopacity="0.0"
     inkscape:pageshadow="2"
     inkscape:zoom="0.98994949"
     inkscape:cx="181.51552"
     inkscape:cy="-66.699673"
     inkscape:document-units="mm"
     inkscape:current-layer="layer1"
     showgrid="false"
     inkscape:window-width="1600"
     inkscape:window-height="837"
     inkscape:window-x="-8"
     inkscape:window-y="-8"
     inkscape:window-maximized="1"
     fit-margin-top="0"
     fit-margin-left="0"
     fit-margin-right="0"
     fit-margin-bottom="0" />
  <metadata
     id="metadata5">
    <rdf:RDF>
      <cc:Work
         rdf:about="">
        <dc:format>image/svg+xml</dc:format>
        <dc:type
           rdf:resource="http://purl.org/dc/dcmitype/StillImage" />
        <dc:title></dc:title>
      </cc:Work>
    </rdf:RDF>
  </metadata>
  <g
     inkscape:label="Layer 1"
     inkscape:groupmode="layer"
     id="layer1"
     transform="translate(-32.626574,-62.247556)">
    <g
       aria-label="active"
       style="font-style:normal;font-variant:normal;font-weight:normal;font-stretch:normal;font-size:14.11111069px;line-height:6.61458302px;font-family:Atvice;-inkscape-font-specification:Atvice;letter-spacing:0px;word-spacing:0px;fill:#f15b8c;fill-opacity:0;stroke:none;stroke-width:0.26458332px;stroke-linecap:butt;stroke-linejoin:miter;stroke-opacity:1"
       id="text4487">
      <path
         d="m 46.00575,69.585333 v 3.076223 q 0,0.310444 -0.127,0.705555 -0.127,0.395111 -0.451556,0.747889 -0.310444,0.338667 -0.860778,0.578556 -0.550333,0.239888 -1.397,0.239888 h -0.381 q -0.846666,0 -1.397,-0.239888 -0.536222,-0.239889 -0.860777,-0.578556 -0.324556,-0.352778 -0.451556,-0.747889 -0.127,-0.395111 -0.127,-0.705555 v -8.128 q 0,-0.366889 0.141111,-0.762 0.155223,-0.409222 0.479778,-0.747889 0.338667,-0.338667 0.874889,-0.550333 0.550333,-0.225778 1.340555,-0.225778 h 0.381 q 0.790223,0 1.326445,0.225778 0.550333,0.211666 0.874889,0.550333 0.338666,0.338667 0.479777,0.747889 0.155223,0.395111 0.155223,0.762 v 1.890889 h -1.947334 v -1.890889 q 0,-0.649111 -0.211666,-1.058333 Q 43.635083,63.066 43.056528,63.066 h -0.141112 q -0.635,0 -0.832555,0.409223 -0.183445,0.409222 -0.183445,1.058333 v 8.128 q 0,0.705555 0.282223,1.086555 0.282222,0.381 0.733777,0.381 h 0.141112 q 0.479777,0 0.733777,-0.409222 0.268111,-0.409222 0.268111,-1.058333 v -3.076223 z"
         style="fill:#ffffff"
         id="path5629"
         inkscape:connector-curvature="0" />
      <path
         d="m 52.458055,62.416889 v 0.635 h -1.778 V 74.75 H 48.732722 V 63.051889 h -1.778 v -0.635 h 1.778 1.947333 z"
         style="fill:#ffffff"
         id="path5631"
         inkscape:connector-curvature="0" />
      <path
         d="M 55.321508,74.75 H 53.374175 V 62.416889 h 1.947333 z"
         style="fill:#ffffff"
         id="path5633"
         inkscape:connector-curvature="0" />
      <path
         d="m 62.917255,74.75 h -1.933223 q -0.931333,0 -1.636888,-0.409222 Q 58.655699,73.931556 58.16181,73.296556 57.667921,72.647445 57.343366,71.857222 57.032921,71.067 56.849477,70.305 q -0.183444,-0.762 -0.254,-1.397 -0.07056,-0.649111 -0.07056,-1.001889 V 62.431 h 1.933223 v 5.475111 q 0,0.282223 0.05644,0.860778 0.07056,0.564444 0.197556,1.255889 0.141111,0.691444 0.352777,1.411111 0.211667,0.719667 0.479778,1.312333 0.282222,0.592667 0.635,0.959556 0.366889,0.366889 0.804333,0.352778 V 62.431 h 1.933223 z"
         style="fill:#ffffff"
         id="path5635"
         inkscape:connector-curvature="0" />
      <path
         d="M 64.370919,74.75 V 62.416889 h 1.933222 2.765778 v 0.635 h -2.765778 v 4.642556 h 2.596444 v 0.790222 h -2.596444 v 5.644444 q 0.01411,0 0.225778,0 0.211666,0 0.522111,0 0.310444,0 0.663222,0 0.352778,0 0.663222,0 0.310445,0 0.522111,0 0.211667,0 0.225778,0 V 74.75 h -2.935111 z"
         style="fill:#ffffff"
         id="path5637"
         inkscape:connector-curvature="0" />
    </g>
    <g
       aria-label="active"
       style="font-style:normal;font-variant:normal;font-weight:normal;font-stretch:normal;font-size:14.11111069px;line-height:6.61458302px;font-family:Atvice;-inkscape-font-specification:Atvice;letter-spacing:0px;word-spacing:0px;fill:#000000;fill-opacity:1;stroke:none;stroke-width:0.26458332px;stroke-linecap:butt;stroke-linejoin:miter;stroke-opacity:1"
       id="text6193">
      <path
         d="m 38.694352,62.614449 v 12.319 h -1.890889 v -6.152444 h -2.286 v 6.152444 h -1.890889 v -8.057444 q 0,-0.592667 0.211667,-1.326445 0.225778,-0.747889 0.719666,-1.397 0.493889,-0.649111 1.284112,-1.086555 0.804333,-0.451556 1.961444,-0.451556 z m -4.176889,5.376333 h 2.286 v -4.741333 q -0.522111,0 -0.945445,0.282222 -0.423333,0.282223 -0.719666,0.776111 -0.296333,0.493889 -0.465667,1.157112 -0.155222,0.663222 -0.155222,1.411111 z"
         style="fill:#f1c152;fill-opacity:1"
         id="path6231"
         inkscape:connector-curvature="0" />
      <path
         d="m 46.176768,69.768782 v 3.076222 q 0,0.310445 -0.127,0.705556 -0.127,0.395111 -0.451555,0.747889 -0.310445,0.338666 -0.860778,0.578555 -0.550333,0.239889 -1.397,0.239889 h -0.381 q -0.846667,0 -1.397,-0.239889 -0.536222,-0.239889 -0.860778,-0.578555 -0.324555,-0.352778 -0.451555,-0.747889 -0.127,-0.395111 -0.127,-0.705556 v -8.127999 q 0,-0.366889 0.141111,-0.762 0.155222,-0.409223 0.479778,-0.747889 0.338666,-0.338667 0.874889,-0.550334 0.550333,-0.225777 1.340555,-0.225777 h 0.381 q 0.790222,0 1.326444,0.225777 0.550334,0.211667 0.874889,0.550334 0.338667,0.338666 0.479778,0.747889 0.155222,0.395111 0.155222,0.762 v 1.890888 h -1.947333 v -1.890888 q 0,-0.649111 -0.211667,-1.058334 -0.211666,-0.409222 -0.790222,-0.409222 h -0.141111 q -0.635,0 -0.832555,0.409222 -0.183445,0.409223 -0.183445,1.058334 v 8.127999 q 0,0.705556 0.282222,1.086556 0.282223,0.381 0.733778,0.381 h 0.141111 q 0.479778,0 0.733778,-0.409222 0.268111,-0.409222 0.268111,-1.058334 v -3.076222 z"
         style="fill:#ffffff"
         id="path6233"
         inkscape:connector-curvature="0" />
      <path
         d="m 52.629074,62.600338 v 0.635 h -1.778 V 74.933449 H 48.903741 V 63.235338 h -1.778 v -0.635 h 1.778 1.947333 z"
         style="fill:#ffffff"
         id="path6235"
         inkscape:connector-curvature="0" />
      <path
         d="M 55.492527,74.933449 H 53.545193 V 62.600338 h 1.947334 z"
         style="fill:#ffffff"
         id="path6237"
         inkscape:connector-curvature="0" />
      <path
         d="m 63.088273,74.933449 h -1.933222 q -0.931333,0 -1.636889,-0.409222 -0.691444,-0.409223 -1.185333,-1.044223 -0.493889,-0.649111 -0.818445,-1.439333 -0.310444,-0.790222 -0.493888,-1.552222 -0.183445,-0.762 -0.254,-1.397 -0.07056,-0.649111 -0.07056,-1.001889 v -5.475111 h 1.933222 v 5.475111 q 0,0.282222 0.05644,0.860778 0.07056,0.564444 0.197555,1.255889 0.141111,0.691444 0.352778,1.411111 0.211667,0.719666 0.479778,1.312333 0.282222,0.592667 0.635,0.959556 0.366889,0.366888 0.804333,0.352777 V 62.614449 h 1.933222 z"
         style="fill:#ffffff"
         id="path6239"
         inkscape:connector-curvature="0" />
      <path
         d="M 64.541937,74.933449 V 62.600338 h 1.933223 2.765777 v 0.635 H 66.47516 v 4.642555 h 2.596444 v 0.790223 H 66.47516 v 5.644444 q 0.01411,0 0.225777,0 0.211667,0 0.522111,0 0.310445,0 0.663223,0 0.352777,0 0.663222,0 0.310444,0 0.522111,0 0.211667,0 0.225778,0 v 0.620889 h -2.935111 z"
         style="fill:#ffffff"
         id="path6241"
         inkscape:connector-curvature="0" />
    </g>
    <flowRoot
       xml:space="preserve"
       id="flowRoot6195"
       style="font-style:normal;font-variant:normal;font-weight:normal;font-stretch:normal;font-size:53.33333206px;line-height:25px;font-family:Atvice;-inkscape-font-specification:Atvice;letter-spacing:0px;word-spacing:0px;fill:#000000;fill-opacity:1;stroke:none;stroke-width:1px;stroke-linecap:butt;stroke-linejoin:miter;stroke-opacity:1"
       transform="matrix(0.26458333,0,0,0.26458333,32.455556,62.247556)"><flowRegion
         id="flowRegion6197"><rect
           id="rect6199"
           width="137.38075"
           height="129.29953"
           x="43.436558"
           y="-61.149811" /></flowRegion><flowPara
         id="flowPara6201"></flowPara></flowRoot>  </g>
</svg>
